<svg height="512pt" viewBox="-61 0 512 512" width="512pt" xmlns="http://www.w3.org/2000/svg"><path d="m390 226c0-41.351562-33.648438-75-75-75h-60c-41.351562 0-75 33.648438-75 75 0 8.289062 6.710938 15 15 15h180c8.289062 0 15-6.710938 15-15zm0 0"/><path d="m105 30h120c24.8125 0 45 20.1875 45 45v18.769531c-12.640625 4.554688-22.710938 14.535157-27.238281 27.230469h84.476562c-4.527343-12.695312-14.597656-22.675781-27.238281-27.230469v-18.769531c0-41.351562-33.648438-75-75-75h-120c-41.351562 0-75 33.648438-75 75v106h-15c-8.289062 0-15 6.710938-15 15v301c0 8.289062 6.710938 15 15 15h60c8.289062 0 15-6.710938 15-15v-136h30v15c0 8.289062 6.710938 15 15 15s15-6.710938 15-15v-60c0-8.289062-6.710938-15-15-15s-15 6.710938-15 15v15h-30v-135c0-8.289062-6.710938-15-15-15h-15v-106c0-24.8125 20.1875-45 45-45zm0 0"/><path d="m225 331c8.289062 0 15-6.710938 15-15v-30c0-8.289062-6.710938-15-15-15s-15 6.710938-15 15v30c0 8.289062 6.710938 15 15 15zm0 0"/><path d="m285 331c8.289062 0 15-6.710938 15-15v-30c0-8.289062-6.710938-15-15-15s-15 6.710938-15 15v30c0 8.289062 6.710938 15 15 15zm0 0"/><path d="m360 286c0-8.289062-6.710938-15-15-15s-15 6.710938-15 15v30c0 8.289062 6.710938 15 15 15s15-6.710938 15-15zm0 0"/><path d="m210 406c0 8.289062 6.710938 15 15 15s15-6.710938 15-15v-30c0-8.289062-6.710938-15-15-15s-15 6.710938-15 15zm0 0"/><path d="m270 406c0 8.289062 6.710938 15 15 15s15-6.710938 15-15v-30c0-8.289062-6.710938-15-15-15s-15 6.710938-15 15zm0 0"/><path d="m345 361c-8.289062 0-15 6.710938-15 15v30c0 8.289062 6.710938 15 15 15s15-6.710938 15-15v-30c0-8.289062-6.710938-15-15-15zm0 0"/><path d="m315 512c8.289062 0 15-6.710938 15-15v-31c0-8.289062-6.710938-15-15-15s-15 6.710938-15 15v31c0 8.289062 6.710938 15 15 15zm0 0"/><path d="m255 512c8.289062 0 15-6.710938 15-15v-31c0-8.289062-6.710938-15-15-15s-15 6.710938-15 15v31c0 8.289062 6.710938 15 15 15zm0 0"/></svg>