<svg id="Capa_1" enable-background="new 0 0 512 512" height="512" viewBox="0 0 512 512" width="512" xmlns="http://www.w3.org/2000/svg"><g><path d="m376.976 240.07h-241.952c-69.297 0-126.558 52.477-134.158 119.777h510.268c-7.6-67.3-64.861-119.777-134.158-119.777z"/><path d="m0 389.847v76.27c0 8.284 6.716 15 15 15s15-6.716 15-15v-16.007h452v16.007c0 8.284 6.716 15 15 15s15-6.716 15-15v-76.27z"/><path d="m125.973 180.05c-2.759 0-5.004 2.245-5.004 5.004v25.616c12.298-1.043 14.36-.417 90.025-.601v-25.016c0-2.759-2.245-5.004-5.005-5.004h-80.016z"/><path d="m305.91 180.05c-2.759 0-5.004 2.245-5.004 5.004v25.016c75.97.181 77.848-.434 90.024.591v-25.607c0-2.759-2.245-5.004-5.004-5.004z"/><path d="m90.969 185.054c0-19.301 15.703-35.004 35.004-35.004h80.017c19.302 0 35.005 15.703 35.005 35.004v25.016h29.912v-25.016c0-19.301 15.703-35.004 35.004-35.004h80.017c19.301 0 35.004 15.703 35.004 35.004v30.97c22.27 6.164 42.667 16.884 60.113 31.098v-171.792c0-6.703-4.447-12.592-10.895-14.427-140.642-40.025-289.322-40.025-429.966 0-6.447 1.835-10.895 7.724-10.895 14.427v173.169c17.783-14.878 38.735-26.085 61.68-32.451z"/></g></svg>