<svg id="Layer_1" enable-background="new 0 0 511.999 511.999" height="512" viewBox="0 0 511.999 511.999" width="512" xmlns="http://www.w3.org/2000/svg"><g><path d="m256 282.924c-4.142 0-7.5 3.357-7.5 7.5v90c0 4.143 3.358 7.5 7.5 7.5s7.5-3.357 7.5-7.5v-90c0-4.143-3.358-7.5-7.5-7.5z"/><path d="m503 297.924c4.142 0 7.5-3.357 7.5-7.5v-226.978c0-13.012-14.659-21.676-26.08-15.253l-5.096 2.866-24.062-24.45c-1.827-1.855-4.486-2.63-7.021-2.05-.979.224-17.111 3.985-40.479 12.898v-29.958c0-2.478-1.224-4.796-3.27-6.193-2.046-1.396-4.651-1.692-6.958-.793-70.109 27.384-106.842 70.539-125.311 101.919-7.497 12.739-12.671 24.561-16.223 34.45-3.552-9.889-8.726-21.711-16.223-34.45-18.469-31.38-55.202-74.535-125.311-101.919-2.307-.899-4.912-.604-6.958.793s-3.27 3.716-3.27 6.193v29.954c-23.317-8.891-39.443-12.656-40.48-12.893-2.539-.58-5.195.194-7.021 2.05l-24.062 24.45-5.096-2.867c-11.341-6.377-26.079 2.15-26.079 15.253v315.204c0 6.313 3.418 12.156 8.92 15.253l193.333 108.75c4.212 1.886 9.498 2.861 13.943 1.41 3.129 4.772 8.517 7.936 14.637 7.936h47.333c6.12 0 11.508-3.164 14.637-7.936 4.746 1.509 9.393 1.039 13.943-1.41l193.334-108.751c5.501-3.096 8.919-8.939 8.919-15.252v-40.227c0-9.697-15-9.697-15 0v40.227c0 .902-.489 1.737-1.274 2.179l-193.334 108.75c-2.075.699-3.317-.028-3.726-2.179v-311.052c-.276-1.496-.33-5.427 1.274-6.33l193.333-108.75c2.076-.698 3.318.028 3.727 2.179v226.978c.001 4.141 3.358 7.499 7.501 7.499zm-110.238-279.222v24.808c-7.085 3.018-14.588 6.442-22.353 10.31-27.388 13.642-61.643 34.82-90.239 65.217 1.523-2.93 3.176-5.934 4.98-8.997 16.354-27.786 48.133-65.489 107.612-91.338zm-110.596 208.362h-52.333v-18.333h52.333zm-52.333 15h52.333v186.718h-52.333zm0 201.718h52.333v18.334h-52.333zm52.333-250.051h-52.333v-17.384c0-1.379 1.122-2.5 2.5-2.5h47.333c1.378 0 2.5 1.121 2.5 2.5zm-217.757-153.533c10.906 2.911 42.706 12.288 78.232 31.014 8.277 4.362 15.553-8.758 6.994-13.27-10.632-5.604-20.888-10.382-30.398-14.434v-24.806c59.141 25.7 90.856 63.114 107.226 90.685 1.913 3.222 3.657 6.381 5.261 9.464-11.776-12.53-25.262-24.305-40.425-35.228-7.866-5.67-16.636 6.502-8.768 12.17 25.897 18.656 46.607 39.827 61.742 63.056-8.705-.713-16.151 2.152-23.362-1.904l-174.689-98.265zm149.186 449.361c-.829.014-1.658.021-2.488.021l-193.333-108.75c-.786-.442-1.275-1.277-1.275-2.18v-315.204c0-1.998 2.208-3.031 3.726-2.179l193.333 108.749c1.605.905 1.551 4.833 1.275 6.331v311.053c0 1.248-.776 1.888-1.238 2.159zm68.571 4.94c0 1.379-1.122 2.5-2.5 2.5h-47.333c-1.378 0-2.5-1.121-2.5-2.5v-17.383h52.333zm8.92-337.556c-7.343 4.131-14.481 1.292-23.35 1.904 29.369-44.988 74.814-74.351 109.024-91.433 32.391-16.174 60.673-24.499 70.831-27.215l18.186 18.48z"/><path d="m462.615 130.968-140.006 80c-2.336 1.335-3.779 3.82-3.779 6.512v48.351c0 5.659 6.308 9.321 11.221 6.512l140.005-80c2.337-1.335 3.779-3.82 3.779-6.512v-48.351c0-5.253-6.043-9.473-11.22-6.512zm-3.78 50.51-125.005 71.428v-31.074l125.005-71.429z"/></g></svg>