<svg id="Layer_1" enable-background="new 0 0 512 512" height="512" viewBox="0 0 512 512" width="512" xmlns="http://www.w3.org/2000/svg"><path d="m189.18 389.66h-49.76c-3.513 0-6.36 2.847-6.36 6.36s2.847 6.36 6.36 6.36h49.76c3.513 0 6.36-2.847 6.36-6.36s-2.847-6.36-6.36-6.36z"/><path d="m189.18 418.35h-16.59c-3.513 0-6.36 2.847-6.36 6.36s2.847 6.36 6.36 6.36h16.59c3.513 0 6.36-2.847 6.36-6.36s-2.847-6.36-6.36-6.36z"/><path d="m126.15 418.35c-3.513 0-6.36 2.847-6.36 6.36s2.847 6.36 6.36 6.36h22.56c3.513 0 6.36-2.847 6.36-6.36s-2.847-6.36-6.36-6.36z"/><path d="m203.91 222.36c-3.513 0-6.36 2.847-6.36 6.36s2.847 6.36 6.36 6.36h43.46c3.513 0 6.36-2.847 6.36-6.36s-2.847-6.36-6.36-6.36z"/><path d="m275.13 193.6c-3.515.139-6.252 3.102-6.113 6.617.132 3.32 2.793 5.981 6.113 6.113h18.7c3.515-.139 6.252-3.102 6.113-6.617-.132-3.32-2.793-5.981-6.113-6.113z"/><path d="m262.91 200c0-3.514-2.846-6.364-6.36-6.37h-30.91c-3.515.139-6.252 3.102-6.113 6.617.132 3.32 2.793 5.981 6.113 6.113h30.91c3.513 0 6.36-2.847 6.36-6.36z"/><path d="m247.37 177.57h68.46c3.513 0 6.36-2.847 6.36-6.36s-2.847-6.36-6.36-6.36h-68.46c-3.513 0-6.36 2.847-6.36 6.36s2.847 6.36 6.36 6.36z"/><path d="m395.76 443.56c-3.514 0-6.364 2.846-6.37 6.36v8c.006 11.824-9.566 21.418-21.39 21.44h-250.19c-11.8-.011-21.371-9.56-21.41-21.36v-8c0-3.513-2.847-6.36-6.36-6.36s-6.36 2.847-6.36 6.36v8c.022 18.842 15.288 34.112 34.13 34.14h250.19c18.838-.033 34.098-15.302 34.12-34.14v-8c.044-3.512-2.767-6.395-6.279-6.44-.027 0-.054 0-.081 0z"/><path d="m118.45 316.45c0-15.69-12.72-28.41-28.41-28.41s-28.41 12.72-28.41 28.41c0 15.675 12.695 28.388 28.37 28.41 15.701.011 28.439-12.709 28.45-28.41zm-44.09 0c0-8.66 7.02-15.68 15.68-15.68s15.68 7.02 15.68 15.68-7.02 15.68-15.68 15.68c-.013 0-.027 0-.04 0-8.64-.033-15.629-7.04-15.64-15.68z"/><path d="m90 431.07c2.065.001 4.002-.998 5.2-2.68 23.66-33.43 52-73.39 52.41-74.08l.24-.4c20.775-31.947 11.719-74.686-20.228-95.461s-74.686-11.719-95.461 20.228c-14.841 22.822-14.876 52.236-.091 75.093l.41.68c.4.6 33 46.58 52.33 73.94 1.194 1.681 3.128 2.679 5.19 2.68zm46.98-83.74c-.86 1.25-28.65 40.51-46.94 66.34l-46.75-66-.39-.67c-16.925-26.037-9.538-60.866 16.499-77.791s60.866-9.538 77.791 16.499c12.113 18.635 12.113 42.657 0 61.292z"/><path d="m395.76 232.71c-20.788-.006-37.644 16.842-37.65 37.63s16.842 37.644 37.63 37.65 37.644-16.842 37.65-37.63c0-.007 0-.013 0-.02-.022-20.773-16.857-37.608-37.63-37.63zm0 62.54c-13.757 0-24.91-11.153-24.91-24.91s11.153-24.91 24.91-24.91 24.91 11.153 24.91 24.91c-.011 13.753-11.157 24.899-24.91 24.91z"/><path d="m395.76 175.19c-52.506-.05-95.111 42.474-95.161 94.979-.017 18.362 5.283 36.336 15.261 51.751l.54.88c.57.86 56.91 80.43 74.16 104.8 2.045 2.869 6.029 3.537 8.899 1.491.576-.411 1.081-.915 1.491-1.491 17.25-24.37 73.6-104 74.3-105l.34-.56c28.586-44.048 16.052-102.93-27.997-131.517-15.432-10.015-33.437-15.338-51.833-15.323zm68.8 140.52c-1.06 1.55-42.86 60.57-68.8 97.22-26-36.68-67.78-95.73-68.61-96.92l-.51-.82c-24.819-38.171-13.995-89.235 24.176-114.054s89.235-13.995 114.054 24.176c17.767 27.325 17.767 62.552 0 89.877z"/><path d="m155.27 134.1c17.778 0 32.19-14.412 32.19-32.19s-14.412-32.19-32.19-32.19-32.19 14.412-32.19 32.19v.01c.022 17.767 14.423 32.163 32.19 32.18zm0-51.64c10.747 0 19.46 8.713 19.46 19.46s-8.713 19.46-19.46 19.46-19.46-8.713-19.46-19.46c.011-10.743 8.717-19.449 19.46-19.46z"/><path d="m88.81 145.83c.47.71 43 60.78 61.26 86.57 2.045 2.869 6.029 3.537 8.899 1.491.576-.411 1.08-.915 1.491-1.491 22.69-32 60.82-85.9 61.38-86.76l.28-.45c23.947-36.92 13.43-86.262-23.49-110.209s-86.262-13.43-110.209 23.49c-17.082 26.335-17.11 60.246-.071 86.609zm66.46-110.83c36.942-.017 66.904 29.917 66.921 66.859.006 12.942-3.742 25.607-10.791 36.461l-.09.15-.16.27c-1 1.39-34.45 48.71-55.88 79l-55.71-78.74-.43-.71c-20.109-30.983-11.293-72.402 19.69-92.51 10.852-7.043 23.513-10.788 36.45-10.78z"/><path d="m399.57 101.06c13.36 0 24.19-10.83 24.19-24.19s-10.83-24.19-24.19-24.19-24.19 10.83-24.19 24.19c.011 13.355 10.835 24.179 24.19 24.19zm0-35.64c6.329 0 11.46 5.131 11.46 11.46s-5.131 11.46-11.46 11.46-11.46-5.131-11.46-11.46c0-.003 0-.007 0-.01.011-6.323 5.137-11.444 11.46-11.45z"/><path d="m352.06 108.26c.3.48 23.18 32.78 42.31 59.8 2.026 2.869 5.995 3.552 8.864 1.526.592-.418 1.108-.934 1.526-1.526 19.14-27 42-59.32 42.43-60l.18-.3c17.144-26.402 9.639-61.704-16.763-78.848s-61.704-9.639-78.848 16.763c-12.245 18.858-12.26 43.152-.039 62.025.04.09.28.51.34.56zm84.47-7.1c-.7 1-22.18 31.36-36.95 52.21l-36.79-51.95-.3-.49c-13.31-20.456-7.517-47.83 12.94-61.14 7.186-4.676 15.577-7.16 24.15-7.15h-.01c24.411-.018 44.214 19.757 44.232 44.168.006 8.563-2.475 16.943-7.142 24.122z"/></svg>