<svg id="Layer_1" enable-background="new 0 0 52 52" height="512" viewBox="0 0 52 52" width="512" xmlns="http://www.w3.org/2000/svg"><g id="_x32_0_1_"><path d="m2.884377 44.4781418c-.5849335.5952034-.9133208 1.3853264-.9133208 2.2268066 0 .8312073.3283873 1.6213913.9133208 2.2165947.5951431.5951462 1.3853264.9132614 2.2268066.9132614.8312087 0 1.6213923-.3181152 2.2165351-.9132614l11.3188648-11.3188629-4.4434042-4.4434052z"/><path d="m41.3047333 35.4374428c-1.7034416-.6875305-3.7660866-.6875305-5.4387741 0-2.8877106 1.1058807-4.7307053 3.9210167-4.7307053 6.9062119 0 4.1047478 3.3453789 7.4398499 7.4398499 7.4398499 4.1047478 0 7.4295807-3.3351021 7.4295807-7.4398499 0-.9543457-.1744347-1.8676643-.5130959-2.7090836-.7490959-1.9190254-2.2781639-3.4583054-4.1868553-4.1971283zm-2.7269364 10.5223541c-.5667076 0-1.0261841-.4594803-1.0261841-1.0261879 0-.5667038.4594765-1.0261841 1.0261841-1.0261841.8588295 0 1.5578194-.6994896 1.5578194-1.5588226 0-.5667076.4594803-1.0261841 1.0261879-1.0261841s1.0261841.4594765 1.0261841 1.0261841c0 1.9912453-1.6194496 3.6111946-3.6101914 3.6111946z"/><path d="m46.2406845 5.8935599c-5.3265648-5.3265655-14.9859257-5.0456689-21.5088234 1.4879203-2.7399006 2.7296906-4.4947014 6.1366367-5.0488186 9.7180166-1.1595955 5.3464527-2.339735 10.0463409-3.5814438 14.3563366-.1333466.4412518.0615692.8927765.4413166 1.1287804l3.0554466 3.0644035c.2795334.2803459.6867752.3823776 1.0653324.2665062 4.3603516-1.334343 9.0214081-2.4733315 14.206892-3.4437752 12.8705865-1.8874187 20.0125276-17.9357595 11.3700982-26.5781884zm-1.4468918 1.4468952c.5201683.5201707.9636154 1.0908871 1.3536339 1.6906643l-2.4158974 2.4158974-3.0439872-3.0439855 2.4242287-2.4242272c.598648.3898306 1.1627883.8424196 1.682022 1.361651zm-11.5017547 14.5460538-3.0437355 3.0437336-3.0439854-3.0439854 3.0437336-3.0437336zm-6.0859681-8.9881496 3.0419807-3.0419817 3.0419807 3.0419817-3.0419806 3.0419807zm4.4930726 4.4930725 3.0419807-3.0419817 3.0439873 3.0439863-3.0419807 3.0419807zm7.5370597 1.4530964 3.0419807 3.0419807-3.0419807 3.0419807-3.0419846-3.0419807zm-3.0439872-5.9461689 3.0442352-3.0442362 3.0439873 3.0439854-3.0442352 3.0442352zm.648632-8.7083035c1.5159187 0 2.991436.2675071 4.3541527.8033361l-1.9585495 1.9585481-2.7434082-2.7434077c.1156235-.0030689.232624-.0184765.347805-.0184765zm-2.0974693 1.1709948 3.0419807 3.0419807-3.0442352 3.0442362-3.0419807-3.0419817zm-2.571228-.330955-1.924099 1.924099-.704813-.704814c.8534431-.4966207 1.7333794-.9024224 2.628912-1.219285zm-5.993393 3.7983422c.5181656-.5181665 1.0682125-.9778957 1.6305981-1.4107556l.9876041.9876037-3.0419807 3.0419817-.9965611-.9965611c.4348641-.5638266.9044285-1.1086741 1.4203396-1.6222687zm-.4237785 5.5210123 3.0419807 3.0419817-3.0437336 3.0437336-3.0419807-3.0419807zm-2.1611672-2.1611662.7100754.7100754-1.9415112 1.9415112c.3183041-.912695.735817-1.7983943 1.2314358-2.6515866zm-2.0299492 6.9597016 2.7382717 2.7382717-1.9517212 1.9517212c-.565956-1.4371243-.8346538-3.0206223-.7865505-4.6899929zm1.7699585 6.6087684 2.419405-2.419405 3.0439854 3.0439854-2.4188423 2.4188404c-1.2652474-.8251896-2.2174206-1.7764568-3.0445481-3.0434208zm4.9638882 4.0262661 1.9505939-1.9505939 2.7380219 2.7380219c-1.6658001.0479755-3.2499885-.2211591-4.6886158-.787428zm6.4436665-.359705-3.0419827-3.0419807 3.0437374-3.0437336 3.0419807 3.0419807zm2.5499305.3522511 1.9448967-1.9448929.7090721.7090721c-.8542594.4976235-1.7407073.9164524-2.6539688 1.2358208zm4.390667-2.4013042-.9946785-.9946804 3.0419807-3.0419807.9883537.9883556c-.8881835 1.154148-1.740055 2.0492343-3.0356559 3.0483055zm2.0473022-6.9388447-3.0419807-3.0419807 3.0442352-3.0442362 3.0419808 3.0419797zm2.1655503 2.1655502-.7144585-.7144585 1.9343071-1.934309c-.3175506.9014206-.7202225 1.7900639-1.2198486 2.6487675zm-.712204-9.7028589 1.9465218-1.9465227c.5735321 1.4635563.8353424 3.0530052.791687 4.6847315z"/></g></svg>