<?xml version="1.0" encoding="iso-8859-1"?>
<!-- Generator: Adobe Illustrator 19.0.0, SVG Export Plug-In . SVG Version: 6.00 Build 0)  -->
<svg version="1.1" id="Capa_1" xmlns="http://www.w3.org/2000/svg" xmlns:xlink="http://www.w3.org/1999/xlink" x="0px" y="0px"
	 viewBox="0 0 512 512" style="enable-background:new 0 0 512 512;" xml:space="preserve">
<g>
	<g>
		<path d="M420.99,121.023c-33.089,0-59.996,26.907-59.996,59.997c0,33.089,26.907,59.996,59.996,59.996
			c33.089,0,59.997-26.907,59.997-59.996C480.986,147.93,454.079,121.023,420.99,121.023z"/>
	</g>
</g>
<g>
	<g>
		<path d="M254.022,97.393l63.614-42.405c13.706-9.129,17.561-27.722,8.32-41.6c-9.158-13.737-27.781-17.601-41.6-8.32
			l-89.995,59.996c-14.461,9.66-17.572,29.346-7.354,42.961l68.99,92.987L103.11,302.941c16.749,3.971,32.662,11.36,46.753,22.636
			c10.692,8.542,23.083,8.557,33.763,0c21.342-17.064,46.623-26.087,73.121-26.087s51.779,9.023,73.106,26.087
			c10.692,8.542,23.083,8.557,33.763,0c13.402-10.716,28.464-17.855,44.299-21.986L254.022,97.393z"/>
	</g>
</g>
<g>
	<g>
		<path d="M503.592,356.337c-3.97-1.948-7.837-4.424-11.483-7.339c-32.518-26.014-77.225-26.014-109.744,0
			c-21.62,17.313-49.626,17.313-71.246,0c-32.518-26.014-76.226-26.014-108.744,0c-21.62,17.313-49.626,17.313-71.246,0
			c-32.518-26.014-77.211-26.014-109.729,0c-4.014,3.208-8.291,5.859-12.699,7.91c-5.303,2.461-8.687,7.764-8.687,13.607v49.166
			c7.489-2.082,14.781-5.405,21.371-10.672c32.518-26.044,77.226-26.029,109.744-0.015c21.62,17.313,49.626,17.313,71.246,0
			c32.518-26.014,76.226-26.014,108.744,0c21.62,17.313,49.626,17.313,71.246,0c32.518-26.014,77.225-26.014,109.744,0
			c6.152,4.933,12.934,7.961,19.877,10.097v-49.293C511.984,364.07,508.733,358.856,503.592,356.337z"/>
	</g>
</g>
<g>
	<g>
		<path d="M473.359,432.43c-21.62-17.313-50.626-17.313-72.246,0c-32.518,26.014-76.226,26.014-108.744,0
			c-21.62-17.313-49.626-17.313-71.246,0c-32.518,26.014-76.226,26.014-108.744,0c-21.62-17.313-50.626-17.313-72.246,0
			c-12.208,9.748-25.92,15.863-40.12,18.344v46.226c0,8.29,6.709,14.999,14.999,14.999h481.972c8.29,0,14.999-6.709,14.999-14.999
			v-46.495C498.369,447.859,485.179,441.874,473.359,432.43z"/>
	</g>
</g>
<g>
</g>
<g>
</g>
<g>
</g>
<g>
</g>
<g>
</g>
<g>
</g>
<g>
</g>
<g>
</g>
<g>
</g>
<g>
</g>
<g>
</g>
<g>
</g>
<g>
</g>
<g>
</g>
<g>
</g>
</svg>
