<?xml version="1.0" encoding="iso-8859-1"?>
<!-- Generator: Adobe Illustrator 19.0.0, SVG Export Plug-In . SVG Version: 6.00 Build 0)  -->
<svg version="1.1" id="Capa_1" xmlns="http://www.w3.org/2000/svg" xmlns:xlink="http://www.w3.org/1999/xlink" x="0px" y="0px"
	 viewBox="0 0 409.597 409.597" style="enable-background:new 0 0 409.597 409.597;" xml:space="preserve">
<g>
	<g>
		<path d="M399.645,180.671l-27.935-27.935c-6.63-6.63-12.063-19.748-12.063-29.133V84.087c0-18.765-15.35-34.115-34.135-34.135
			h-39.516c-9.385,0-22.502-5.432-29.133-12.068l-27.93-27.935c-13.271-13.266-35-13.266-48.271,0l-27.93,27.95
			c-6.636,6.63-19.768,12.068-29.133,12.068H84.1c-18.765,0-34.135,15.35-34.135,34.135v39.48c0,9.385-5.432,22.502-12.063,29.133
			l-27.935,27.95c-13.281,13.266-13.281,34.985,0,48.282l27.935,27.935c6.635,6.635,12.063,19.763,12.063,29.133v39.501
			c0,18.765,15.37,34.135,34.135,34.135h39.501c9.385,0,22.502,5.432,29.133,12.063l27.93,27.935c13.271,13.266,35,13.266,48.271,0
			l27.93-27.935c6.636-6.635,19.748-12.063,29.133-12.063h39.516c18.785,0,34.135-15.37,34.135-34.135v-39.501
			c0-9.4,5.437-22.502,12.063-29.133l27.935-27.935C412.906,215.651,412.906,193.932,399.645,180.671z M347.58,232.751
			c-13,12.969-22.072,34.898-22.072,53.269v39.501h-39.516c-18.365,0-40.284,9.068-53.263,22.067l-27.935,27.935l-27.935-27.935
			c-13-13-34.898-22.067-53.263-22.067H84.095V286.02c0-18.371-9.068-40.269-22.067-53.268l-27.935-27.95l27.935-27.95
			c13-12.984,22.067-34.883,22.067-53.268v-39.48h39.501c18.365,0,40.264-9.083,53.263-22.067l27.935-27.95l27.94,27.935
			c12.979,13,34.898,22.067,53.263,22.067h39.516v39.516c0,18.365,9.068,40.269,22.072,53.268l27.924,27.93L347.58,232.751z"/>
	</g>
</g>
<g>
	<g>
		<polygon points="283.058,128.001 177.704,233.335 126.524,182.15 102.394,206.286 177.704,281.601 307.194,152.132 		"/>
	</g>
</g>
<g>
</g>
<g>
</g>
<g>
</g>
<g>
</g>
<g>
</g>
<g>
</g>
<g>
</g>
<g>
</g>
<g>
</g>
<g>
</g>
<g>
</g>
<g>
</g>
<g>
</g>
<g>
</g>
<g>
</g>
</svg>
